<mxfile host="app.diagrams.net" modified="2023-10-05T18:07:05.889Z" agent="Mozilla/5.0 (Macintosh; Intel Mac OS X 10_15_7) AppleWebKit/537.36 (KHTML, like Gecko) Chrome/117.0.0.0 Safari/537.36" etag="ZV3mm1d_Z-qgtvZVxQUH" version="22.0.0" type="device">
  <diagram name="Страница — 1" id="RQY_ObDW786shSuGEIfg">
    <mxGraphModel dx="1194" dy="760" grid="1" gridSize="10" guides="1" tooltips="1" connect="1" arrows="1" fold="1" page="1" pageScale="1" pageWidth="827" pageHeight="1169" math="0" shadow="0">
      <root>
        <mxCell id="0" />
        <mxCell id="1" parent="0" />
        <mxCell id="h4DRlYpf-_mUw7qI4g2B-1" value="" style="rounded=0;whiteSpace=wrap;html=1;" vertex="1" parent="1">
          <mxGeometry x="70" y="110" width="680" height="330" as="geometry" />
        </mxCell>
        <mxCell id="h4DRlYpf-_mUw7qI4g2B-2" value="&lt;font color=&quot;#ffffff&quot;&gt;URL = Link to repo&lt;/font&gt;" style="rounded=0;whiteSpace=wrap;html=1;fillColor=#050505;" vertex="1" parent="1">
          <mxGeometry x="124" y="150" width="580" height="60" as="geometry" />
        </mxCell>
        <mxCell id="h4DRlYpf-_mUw7qI4g2B-3" value="&lt;font color=&quot;#ffffff&quot;&gt;Homework1&lt;/font&gt;" style="rounded=0;whiteSpace=wrap;html=1;fillColor=#050505;" vertex="1" parent="1">
          <mxGeometry x="124" y="240" width="116" height="60" as="geometry" />
        </mxCell>
        <mxCell id="h4DRlYpf-_mUw7qI4g2B-4" value="&lt;font color=&quot;#ffffff&quot;&gt;Homework2&lt;/font&gt;" style="rounded=0;whiteSpace=wrap;html=1;fillColor=#050505;" vertex="1" parent="1">
          <mxGeometry x="124" y="330" width="120" height="60" as="geometry" />
        </mxCell>
        <mxCell id="h4DRlYpf-_mUw7qI4g2B-6" value="HTML" style="rounded=0;whiteSpace=wrap;html=1;" vertex="1" parent="1">
          <mxGeometry x="270" y="240" width="120" height="20" as="geometry" />
        </mxCell>
        <mxCell id="h4DRlYpf-_mUw7qI4g2B-7" value="JS" style="rounded=0;whiteSpace=wrap;html=1;" vertex="1" parent="1">
          <mxGeometry x="270" y="280" width="120" height="20" as="geometry" />
        </mxCell>
        <mxCell id="h4DRlYpf-_mUw7qI4g2B-9" value="" style="endArrow=classic;html=1;rounded=0;exitX=1;exitY=0.5;exitDx=0;exitDy=0;entryX=0;entryY=0.5;entryDx=0;entryDy=0;" edge="1" parent="1" source="h4DRlYpf-_mUw7qI4g2B-3" target="h4DRlYpf-_mUw7qI4g2B-7">
          <mxGeometry width="50" height="50" relative="1" as="geometry">
            <mxPoint x="390" y="420" as="sourcePoint" />
            <mxPoint x="440" y="370" as="targetPoint" />
          </mxGeometry>
        </mxCell>
        <mxCell id="h4DRlYpf-_mUw7qI4g2B-10" value="" style="endArrow=classic;html=1;rounded=0;entryX=0;entryY=0.5;entryDx=0;entryDy=0;" edge="1" parent="1" target="h4DRlYpf-_mUw7qI4g2B-6">
          <mxGeometry width="50" height="50" relative="1" as="geometry">
            <mxPoint x="240" y="270" as="sourcePoint" />
            <mxPoint x="440" y="370" as="targetPoint" />
          </mxGeometry>
        </mxCell>
        <mxCell id="h4DRlYpf-_mUw7qI4g2B-11" value="id =&amp;gt; value" style="rounded=0;whiteSpace=wrap;html=1;" vertex="1" parent="1">
          <mxGeometry x="80" y="530" width="120" height="60" as="geometry" />
        </mxCell>
        <mxCell id="h4DRlYpf-_mUw7qI4g2B-15" style="edgeStyle=orthogonalEdgeStyle;rounded=0;orthogonalLoop=1;jettySize=auto;html=1;" edge="1" parent="1" source="h4DRlYpf-_mUw7qI4g2B-12">
          <mxGeometry relative="1" as="geometry">
            <mxPoint x="260" y="640" as="targetPoint" />
          </mxGeometry>
        </mxCell>
        <mxCell id="h4DRlYpf-_mUw7qI4g2B-12" value="id = a" style="rounded=0;whiteSpace=wrap;html=1;" vertex="1" parent="1">
          <mxGeometry x="200" y="530" width="120" height="60" as="geometry" />
        </mxCell>
        <mxCell id="h4DRlYpf-_mUw7qI4g2B-13" value="undefinrd" style="rounded=0;whiteSpace=wrap;html=1;" vertex="1" parent="1">
          <mxGeometry x="320" y="530" width="120" height="60" as="geometry" />
        </mxCell>
        <mxCell id="h4DRlYpf-_mUw7qI4g2B-14" value="" style="rounded=0;whiteSpace=wrap;html=1;" vertex="1" parent="1">
          <mxGeometry x="440" y="530" width="120" height="60" as="geometry" />
        </mxCell>
        <mxCell id="h4DRlYpf-_mUw7qI4g2B-16" value="value - порожне" style="rounded=0;whiteSpace=wrap;html=1;" vertex="1" parent="1">
          <mxGeometry x="200" y="640" width="120" height="60" as="geometry" />
        </mxCell>
      </root>
    </mxGraphModel>
  </diagram>
</mxfile>
